<?xml version="1.0" standalone="no"?>
<!DOCTYPE svg PUBLIC "-//W3C//DTD SVG 20010904//EN"
 "http://www.w3.org/TR/2001/REC-SVG-20010904/DTD/svg10.dtd">
<svg version="1.0" xmlns="http://www.w3.org/2000/svg"
 width="512.000000pt" height="512.000000pt" viewBox="0 0 512.000000 512.000000"
 preserveAspectRatio="xMidYMid meet">

<g transform="translate(0.000000,512.000000) scale(0.100000,-0.100000)"
fill="#000000" stroke="none">
<path d="M2480 4995 c-46 -21 -77 -51 -103 -100 -22 -39 -22 -50 -25 -564 l-3
-524 -137 135 c-121 120 -143 136 -186 147 -105 26 -209 -33 -245 -138 -14
-42 -14 -65 0 -116 9 -33 62 -92 327 -359 332 -333 372 -366 452 -366 80 0
120 33 452 366 219 220 319 328 325 349 39 150 -81 295 -225 269 -58 -10 -71
-20 -216 -157 l-136 -129 0 525 0 524 -23 44 c-34 63 -90 100 -163 105 -40 3
-70 0 -94 -11z"/>
<path d="M219 4942 c-43 -22 -59 -38 -81 -81 l-28 -53 0 -2267 c0 -2184 1
-2267 19 -2306 23 -49 64 -89 113 -109 33 -14 279 -16 2320 -16 2201 0 2284 1
2323 19 49 23 89 64 109 113 14 33 16 277 16 2302 l0 2264 -28 53 c-49 94
-162 133 -257 90 -51 -23 -101 -79 -114 -128 -7 -25 -11 -333 -11 -913 l0
-876 -263 -261 c-312 -311 -322 -318 -477 -318 -118 0 -170 18 -254 89 -148
124 -226 169 -362 208 -112 32 -296 32 -407 0 -156 -45 -242 -99 -412 -261
-155 -149 -204 -175 -325 -176 -78 0 -91 3 -160 38 -48 24 -108 67 -167 119
-181 164 -337 228 -553 228 -232 0 -397 -74 -599 -266 l-101 -96 0 1223 c0
823 -4 1236 -11 1262 -13 49 -63 105 -114 128 -58 27 -113 24 -176 -9z m4381
-3457 l0 -965 -2040 0 -2040 0 0 618 0 618 238 237 c258 256 292 281 408 296
124 17 221 -19 344 -128 197 -175 371 -252 575 -253 126 0 214 20 330 76 110
54 202 122 321 237 123 120 175 144 304 144 119 0 168 -21 290 -123 102 -85
206 -143 315 -174 114 -32 306 -32 420 0 154 45 291 138 470 321 33 33 61 61
62 61 2 0 3 -434 3 -965z"/>
</g>
</svg>
