<?xml version="1.0" encoding="UTF-8"?>
<!DOCTYPE svg PUBLIC "-//W3C//DTD SVG 1.1//EN" "http://www.w3.org/Graphics/SVG/1.1/DTD/svg11.dtd">
<svg xmlns="http://www.w3.org/2000/svg" version="1.1" width="400px" height="400px" style="transform: scale(0.8);shape-rendering:geometricPrecision; text-rendering:geometricPrecision; image-rendering:optimizeQuality; fill-rule:evenodd; clip-rule:evenodd" xmlns:xlink="http://www.w3.org/1999/xlink">
<g><path style="opacity:0.99" fill="#2452c3" d="M 191.5,40.5 C 196.5,40.5 201.5,40.5 206.5,40.5C 206.296,42.6854 205.63,44.6854 204.5,46.5C 203.559,48.0495 202.893,49.7162 202.5,51.5C 201.543,54.1499 199.876,54.8166 197.5,53.5C 197.672,52.5084 197.338,51.8417 196.5,51.5C 195.113,47.7252 193.447,44.0585 191.5,40.5 Z"/></g>
<g><path style="opacity:0.004" fill="#1b142d" d="M 191.5,40.5 C 196.64,39.5119 201.974,39.1786 207.5,39.5C 208.092,42.6305 207.092,44.9639 204.5,46.5C 205.63,44.6854 206.296,42.6854 206.5,40.5C 201.5,40.5 196.5,40.5 191.5,40.5 Z"/></g>
<g><path style="opacity:0.004" fill="#241943" d="M 191.5,40.5 C 193.447,44.0585 195.113,47.7252 196.5,51.5C 195.833,50.8333 195.167,50.1667 194.5,49.5C 193.836,47.513 192.669,45.8463 191,44.5C 190.235,42.9343 190.402,41.6009 191.5,40.5 Z"/></g>
<g><path style="opacity:0.011" fill="#06030e" d="M 194.5,49.5 C 195.167,50.1667 195.833,50.8333 196.5,51.5C 197.338,51.8417 197.672,52.5084 197.5,53.5C 197.557,54.609 197.89,55.609 198.5,56.5C 196.833,56.5 195.167,56.5 193.5,56.5C 193.993,54.1944 194.326,51.861 194.5,49.5 Z"/></g>
<g><path style="opacity:0.004" fill="#1f2051" d="M 202.5,51.5 C 203.244,54.9496 201.91,56.6162 198.5,56.5C 197.89,55.609 197.557,54.609 197.5,53.5C 199.876,54.8166 201.543,54.1499 202.5,51.5 Z"/></g>
<g><path style="opacity:0.976" fill="#0154ca" d="M 195.5,78.5 C 198.448,78.2229 201.281,78.5562 204,79.5C 204.211,86.5514 204.878,93.5514 206,100.5C 206.667,101.167 207.333,101.833 208,102.5C 208.079,106.358 208.746,110.024 210,113.5C 210.784,116.76 210.617,119.927 209.5,123C 212.76,122.518 216.093,122.518 219.5,123C 220.333,123.833 221.167,124.667 222,125.5C 222.499,130.155 222.666,134.821 222.5,139.5C 231.853,139.794 240.853,138.794 249.5,136.5C 257.459,135.075 261.126,138.408 260.5,146.5C 258.387,156.004 258.054,165.671 259.5,175.5C 261.768,174.456 264.101,174.289 266.5,175C 268.705,177.54 271.205,179.707 274,181.5C 276.979,188.685 277.313,196.018 275,203.5C 273.429,205.923 271.263,207.256 268.5,207.5C 268.5,214.167 268.5,220.833 268.5,227.5C 272.107,227.379 274.273,229.045 275,232.5C 275.667,238.167 275.667,243.833 275,249.5C 272.5,252.667 270,255.833 267.5,259C 264.607,260.149 261.607,260.649 258.5,260.5C 258.667,271.838 258.5,283.172 258,294.5C 257.5,295 257,295.5 256.5,296C 217.836,295.34 179.169,295.34 140.5,296C 139.843,284.228 139.176,272.395 138.5,260.5C 136.224,259.787 133.891,259.287 131.5,259C 128.037,255.832 124.87,252.332 122,248.5C 121.333,242.833 121.333,237.167 122,231.5C 123.894,228.156 126.727,226.822 130.5,227.5C 130.5,220.833 130.5,214.167 130.5,207.5C 127.339,206.53 124.506,204.863 122,202.5C 118.197,190.772 121.363,181.605 131.5,175C 133.769,174.242 135.936,174.409 138,175.5C 138.333,163.167 138.667,150.833 139,138.5C 139.5,138 140,137.5 140.5,137C 143.167,136.833 145.833,136.667 148.5,136.5C 155.167,138.44 162.167,139.44 169.5,139.5C 169.335,135.818 169.501,132.152 170,128.5C 171.675,127.405 172.842,125.905 173.5,124C 178.445,122.875 183.445,122.375 188.5,122.5C 188.013,121.554 187.68,120.554 187.5,119.5C 188.992,113.6 189.825,107.6 190,101.5C 191.755,100.33 192.755,98.6633 193,96.5C 193.333,91.5 193.667,86.5 194,81.5C 194.513,80.4734 195.013,79.4734 195.5,78.5 Z M 196.5,106.5 C 198.144,106.286 199.644,106.62 201,107.5C 201.238,111.222 201.738,114.889 202.5,118.5C 201.4,122.442 201.233,126.442 202,130.5C 206.066,131.464 210.233,131.797 214.5,131.5C 214.2,136.099 214.533,140.599 215.5,145C 227.866,145.226 240.199,145.726 252.5,146.5C 251.397,158.133 251.231,169.8 252,181.5C 255.057,182.451 258.223,182.784 261.5,182.5C 261.667,205.836 261.5,229.169 261,252.5C 258,253.167 255,253.833 252,254.5C 251.5,266.162 251.333,277.829 251.5,289.5C 216.834,288.369 182.167,288.202 147.5,289C 146.678,277.91 146.178,266.743 146,255.5C 143.174,253.66 140.007,252.994 136.5,253.5C 136.345,229.824 136.679,206.157 137.5,182.5C 140.602,182.846 143.435,182.179 146,180.5C 146.5,169.505 146.667,158.505 146.5,147.5C 148.39,147.703 149.89,147.037 151,145.5C 159.421,146.649 167.921,146.816 176.5,146C 177,145.5 177.5,145 178,144.5C 178.499,140.179 178.666,135.846 178.5,131.5C 183.844,131.666 189.177,131.499 194.5,131C 195,130.5 195.5,130 196,129.5C 195.646,121.87 195.813,114.204 196.5,106.5 Z M 167.5,161.5 C 173.481,161.98 177.147,165.147 178.5,171C 175.292,179.544 169.626,181.877 161.5,178C 156.167,173.333 156.167,168.667 161.5,164C 163.611,163.155 165.611,162.322 167.5,161.5 Z M 223.5,163.5 C 231.712,162.226 235.546,165.559 235,173.5C 230.867,177.9 226.2,178.567 221,175.5C 218.511,170.757 219.345,166.757 223.5,163.5 Z M 128.5,193.5 C 130.441,195.011 130.941,197.011 130,199.5C 128.872,197.655 128.372,195.655 128.5,193.5 Z M 130.5,234.5 C 130.852,237.073 130.352,239.406 129,241.5C 128.174,238.788 128.674,236.455 130.5,234.5 Z M 226.5,258.5 C 232.925,257.534 236.592,260.201 237.5,266.5C 236.672,271.155 233.838,273.488 229,273.5C 223.996,273.498 221.163,270.998 220.5,266C 221.608,262.732 223.608,260.232 226.5,258.5 Z M 164.5,259.5 C 171.304,258.221 175.304,260.888 176.5,267.5C 174.777,273.533 170.777,275.699 164.5,274C 159.962,272.287 158.462,269.12 160,264.5C 161.025,262.313 162.525,260.646 164.5,259.5 Z"/></g>
<g><path style="opacity:0.446" fill="#0254ca" d="M 221.5,155.5 C 237.654,153.487 244.487,160.487 242,176.5C 237.652,184.915 230.819,187.748 221.5,185C 218.461,183.969 215.961,182.135 214,179.5C 212,173.5 212,167.5 214,161.5C 216.134,158.847 218.634,156.847 221.5,155.5 Z M 223.5,163.5 C 219.345,166.757 218.511,170.757 221,175.5C 226.2,178.567 230.867,177.9 235,173.5C 235.546,165.559 231.712,162.226 223.5,163.5 Z"/></g>
<g><path style="opacity:0.777" fill="#0254ca" d="M 162.5,157.5 C 176.987,155.82 183.154,162.153 181,176.5C 177.016,184.042 170.849,186.542 162.5,184C 154.958,180.016 152.458,173.849 155,165.5C 156.69,161.979 159.19,159.312 162.5,157.5 Z M 167.5,161.5 C 165.611,162.322 163.611,163.155 161.5,164C 156.167,168.667 156.167,173.333 161.5,178C 169.626,181.877 175.292,179.544 178.5,171C 177.147,165.147 173.481,161.98 167.5,161.5 Z"/></g>
<g><path style="opacity:0.479" fill="#0254ca" d="M 223.5,251.5 C 239.118,249.366 245.952,256.033 244,271.5C 242.969,274.539 241.135,277.039 238.5,279C 219.178,284.01 211.678,276.843 216,257.5C 218.134,254.847 220.634,252.847 223.5,251.5 Z M 226.5,258.5 C 223.608,260.232 221.608,262.732 220.5,266C 221.163,270.998 223.996,273.498 229,273.5C 233.838,273.488 236.672,271.155 237.5,266.5C 236.592,260.201 232.925,257.534 226.5,258.5 Z"/></g>
<g><path style="opacity:0.509" fill="#0254ca" d="M 162.5,252.5 C 181.236,251.907 186.903,260.24 179.5,277.5C 177.972,278.861 176.305,280.028 174.5,281C 156.751,283.357 150.251,275.857 155,258.5C 157.134,255.847 159.634,253.847 162.5,252.5 Z M 164.5,259.5 C 162.525,260.646 161.025,262.313 160,264.5C 158.462,269.12 159.962,272.287 164.5,274C 170.777,275.699 174.777,273.533 176.5,267.5C 175.304,260.888 171.304,258.221 164.5,259.5 Z"/></g>
</svg>
